<?xml version="1.0" encoding="UTF-8" ?>
<!DOCTYPE svg PUBLIC "-//W3C//DTD SVG 1.1//EN" "http://www.w3.org/Graphics/SVG/1.1/DTD/svg11.dtd">
<svg width="16pt" height="17pt" viewBox="0 0 16 17" version="1.1" xmlns="http://www.w3.org/2000/svg">
<g id="#3f5475d3">
<path fill="#3f5475" opacity="0.83" d=" M 6.61 0.00 L 9.33 0.00 C 12.79 1.70 13.68 5.94 12.18 9.27 C 13.64 10.56 15.13 11.89 16.00 13.68 L 16.00 17.00 L 0.00 17.00 L 0.00 13.74 C 0.84 11.92 2.32 10.55 3.81 9.27 C 2.31 5.94 3.22 1.77 6.61 0.00 M 8.86 9.93 C 11.05 8.71 11.11 6.23 11.07 4.01 C 10.10 2.91 8.95 1.24 7.23 1.91 C 3.41 3.19 4.52 10.75 8.86 9.93 M 1.63 15.24 C 5.87 15.29 10.12 15.29 14.36 15.24 C 13.98 12.07 10.91 9.89 8.00 11.79 C 5.10 9.88 2.02 12.09 1.63 15.24 Z" />
</g>
</svg>
