<?xml version="1.0" encoding="UTF-8" ?>
<!DOCTYPE svg PUBLIC "-//W3C//DTD SVG 1.1//EN" "http://www.w3.org/Graphics/SVG/1.1/DTD/svg11.dtd">
<svg width="16pt" height="16pt" viewBox="0 0 16 16" version="1.1" xmlns="http://www.w3.org/2000/svg">
<g id="#405576d2">
<path fill="#405576" opacity="0.82" d=" M 4.01 0.00 L 16.00 0.00 L 16.00 11.94 C 14.67 11.98 13.34 12.02 12.01 12.05 C 12.00 13.37 12.00 14.68 12.00 16.00 L 0.00 16.00 L 0.00 4.04 C 1.33 4.01 2.66 3.99 3.99 3.97 C 3.99 2.64 4.00 1.32 4.01 0.00 M 5.75 1.73 C 5.58 4.64 5.63 7.55 5.66 10.47 C 8.58 10.53 11.49 10.54 14.41 10.48 C 14.45 7.57 14.44 4.66 14.39 1.74 C 11.51 1.69 8.63 1.75 5.75 1.73 M 1.65 14.47 C 4.57 14.54 7.49 14.58 10.41 14.40 C 10.47 13.86 10.59 12.78 10.65 12.24 C 8.46 12.02 6.25 11.94 4.05 11.97 C 3.99 9.84 3.97 7.72 3.97 5.60 C 3.50 5.67 2.54 5.82 2.06 5.90 C 0.98 8.47 1.95 11.66 1.65 14.47 Z" />
</g>
</svg>
