<?xml version="1.0" encoding="UTF-8" ?>
<!DOCTYPE svg PUBLIC "-//W3C//DTD SVG 1.1//EN" "http://www.w3.org/Graphics/SVG/1.1/DTD/svg11.dtd">
<svg width="17pt" height="15pt" viewBox="0 0 17 15" version="1.1" xmlns="http://www.w3.org/2000/svg">
<g id="#4b638bf9">
<path fill="#4b638b" opacity="0.98" d=" M 0.00 0.00 L 5.90 0.00 C 9.14 2.37 13.25 1.60 17.00 1.64 L 17.00 15.00 L 0.00 15.00 L 0.00 0.00 M 1.60 1.54 C 1.61 2.20 1.61 3.52 1.61 4.18 C 6.34 3.68 11.46 5.22 15.93 3.35 C 12.82 2.85 9.37 3.99 6.49 2.39 C 5.04 1.43 3.26 1.60 1.60 1.54 M 1.60 6.00 C 1.60 8.46 1.62 10.92 1.60 13.39 C 6.20 13.38 10.80 13.38 15.40 13.39 C 15.38 10.92 15.40 8.46 15.40 6.00 C 10.80 6.01 6.20 6.00 1.60 6.00 Z" />
</g>
</svg>
